<?xml version="1.0" encoding="UTF-8"?>
<svg id="_레이어_1" data-name="레이어_1" xmlns="http://www.w3.org/2000/svg" version="1.1" viewBox="0 0 540.49 52.49">
  <!-- Generator: Adobe Illustrator 30.2.0, SVG Export Plug-In . SVG Version: 2.1.1 Build 105)  -->
  <defs>
    <style>
      .st0 {
        fill: #fff;
      }

      .st0, .st1 {
        fill-rule: evenodd;
      }

      .st1 {
        fill: #e60012;
      }
    </style>
  </defs>
  <path class="st1" d="M11.37,25.19C4.94,38.99-.36,50.36-.37,50.44c-.03.09,1.56.12,4.09.11l4.15-.05,2.8-6.23,2.79-6.23,9.67.03,9.67.03,2.73,6.2,2.73,6.2,4.15.05c2.28.02,4.14,0,4.14-.05,0-.03-4.68-10.13-10.39-22.42C30.44,15.78,25.21,4.5,24.51,3.02c-.68-1.49-1.29-2.76-1.33-2.82-.06-.06-5.36,11.18-11.79,24.99h-.02ZM27.25,25.4c1.33,2.97,2.49,5.58,2.57,5.76l.14.36h-6.74c-3.7,0-6.74-.03-6.74-.06,0-.05,1.05-2.43,2.34-5.31,2.79-6.27,3.05-6.91,3.7-9.11.28-.94.54-1.77.57-1.83.05-.06.45.98.9,2.32s1.86,4.77,3.25,7.87h0Z"/>
  <path class="st1" d="M140.41,25.31v25.27h7.28l.03-16.84.05-16.84,1.33,1.61c1.84,2.25,3.05,3.47,9.9,10.02,8.13,7.78,21.92,21.02,23.59,22.65l1.35,1.33V1.93h-7.28l-.03,16.84-.05,16.82-1.15-1.38c-1.75-2.08-6.71-6.99-20.7-20.45-6.99-6.72-13.07-12.56-13.51-12.98l-.82-.76v25.28h0Z"/>
  <path class="st0" d="M275.1,1.02c-8.85.84-16.62,6.04-20.59,13.77-1.13,2.2-1.78,4.01-2.29,6.35-.31,1.44-.36,2.04-.34,5.27,0,3.18.05,3.84.34,5.22,1.07,4.88,3.27,8.88,6.83,12.44,2.29,2.28,4.2,3.67,6.75,4.96,3.59,1.78,6.92,2.62,11.08,2.74,5.78.19,10.69-1.22,15.51-4.48,4.38-2.96,7.81-7.23,9.6-11.97,2.49-6.63,2.09-14.08-1.12-20.36-4.07-7.98-11.82-13.15-20.91-13.96-2-.17-2.87-.17-4.86.02ZM280.62,8.38c7.87,1.35,13.82,7.88,14.72,16.16.45,4.24-.76,8.91-3.24,12.41-1.61,2.29-4.31,4.62-6.83,5.89-3.98,2-9.4,2.25-13.8.6-4.18-1.55-8.13-5.33-9.98-9.54-2.06-4.68-2.06-10.44,0-15.12,1.64-3.76,5.13-7.33,8.81-9.03,3.18-1.46,6.89-1.95,10.32-1.36h0Z"/>
  <path class="st0" d="M373.31,1.02c-7.59.71-14.42,4.65-18.87,10.87-1.04,1.44-2.7,4.72-3.27,6.46-.9,2.73-1.1,4.14-1.1,7.98,0,3.16.05,3.75.36,5.25,1.05,4.93,3.24,8.89,6.83,12.49,2.29,2.28,4.2,3.67,6.75,4.96,3.59,1.78,6.92,2.62,11.08,2.74,3.61.12,6.63-.34,9.76-1.5,7.06-2.6,12.81-8.19,15.35-14.95,2.49-6.65,2.09-14.07-1.12-20.36-4.07-7.98-11.82-13.15-20.91-13.96-2-.17-2.87-.17-4.86.02ZM378.83,8.38c3.76.65,6.97,2.37,9.68,5.2,6.83,7.14,6.83,18.45,0,25.5-1.39,1.44-2.45,2.26-4.2,3.27-4.26,2.43-9.87,2.85-14.64,1.08-4.18-1.55-8.13-5.33-9.98-9.54-2.03-4.6-2.06-10.18-.09-14.87,1.63-3.9,5.11-7.53,8.91-9.28,3.18-1.46,6.89-1.95,10.32-1.36h0Z"/>
  <path class="st0" d="M483.53.94c-6.72.81-11.74,3.21-16.03,7.68-4.97,5.16-7.37,12.05-6.88,19.69.22,3.47,1.01,6.49,2.54,9.67,1.21,2.54,2.49,4.34,4.65,6.49,3.64,3.66,7.48,5.69,12.92,6.83,1.8.39,2.25.42,5.59.42,2.88.02,3.95-.05,5.11-.26,3.61-.7,6.37-1.75,9.03-3.45l1.04-.68v-8.86l-.73.62c-2.97,2.46-6.88,4.32-10.67,5.1-1.95.39-6.32.39-8.04,0-4.32-.99-7.78-3.33-10.29-6.99-2.26-3.28-3.36-8.01-2.96-12.67.4-4.72,1.84-8.09,4.8-11.18,3.02-3.18,6.8-4.88,11.46-5.17,5.69-.37,10.74,1.16,15.29,4.6l1.21.91.09-1.02c.06-.57.15-2.34.22-3.92l.11-2.9-.94-.64c-2.45-1.66-6.48-3.28-9.7-3.9-1.5-.29-6.48-.51-7.82-.36h0Z"/>
  <path class="st0" d="M522.69,1c-6.58.64-11.46,4.85-12.38,10.72-.28,1.84-.11,4.91.37,6.4,1.33,4.06,4.63,6.86,12.89,10.92,4.72,2.32,6.54,3.64,7.71,5.62,1.61,2.68.74,6.49-1.92,8.49-2.43,1.83-7.05,1.95-10.24.26-1.33-.71-2.66-2.14-3.39-3.62-.33-.68-.6-1.36-.6-1.5s-.06-.26-.15-.26c-.19,0-5.9,2.63-6.1,2.8-.08.06.02.62.22,1.24,1.22,4.04,4.11,7.13,8.02,8.6,1.91.71,3.5,1.01,5.99,1.1,7.45.29,12.95-2.51,15.58-7.93,1.83-3.8,1.92-9.2.2-12.7-1.5-3.08-4.15-5.14-10.84-8.44-4.52-2.23-6.35-3.38-7.75-4.83-1.3-1.35-1.8-2.37-1.89-3.86-.15-2.73,1.35-4.99,3.92-5.87,1.18-.42,3.42-.57,4.62-.33,1.92.4,3.69,1.66,5.24,3.72l.39.53,3.05-1.58,3.04-1.58-.15-.42c-.73-1.92-2.8-4.31-4.71-5.41-2.83-1.64-7.16-2.45-11.11-2.06h0Z"/>
  <polygon class="st1" points="51.33 26.25 51.33 50.57 55.29 50.57 59.24 50.57 59.24 26.25 59.24 1.93 55.29 1.93 51.33 1.93 51.33 26.25"/>
  <path class="st1" d="M70.7,26.27v24.34l9.57-.08c9.81-.08,11.82-.19,14.82-.81,8.26-1.69,14.41-8.15,16.17-16.98.62-3.13.79-6.6.48-9.76-1.08-10.58-7.03-17.92-16.27-20.03-2.99-.7-9.03-1.02-18.78-1.02h-6.01v24.34h.02ZM91.22,9.35c3.49.56,5.61,1.55,7.68,3.58,3.41,3.35,4.97,8.1,4.74,14.41-.11,2.66-.46,4.71-1.19,6.68-1.49,4.11-4.46,7.14-8.23,8.43-2.12.73-3.62.88-9.85.96l-5.78.08V9.04l5.78.08c3.16.05,6.26.15,6.85.25v-.02Z"/>
  <polygon class="st1" points="121.2 26.25 121.2 50.57 125.15 50.57 129.1 50.57 129.1 26.25 129.1 1.93 125.15 1.93 121.2 1.93 121.2 26.25"/>
  <path class="st0" d="M215.69,26.24v24.34h7.44v-21.66l.42-.08c.25-.05.46-.03.51.03s3.69,4.97,8.1,10.91l8.02,10.8h4.41c2.42,0,4.4-.03,4.4-.08,0-.03-3.73-5-8.3-11.03l-8.3-10.97.6-.12c3.01-.65,4.66-1.32,6.1-2.45,1.86-1.46,3.19-3.55,3.89-6.1.29-1.07.34-1.64.34-4.26.02-2.7-.02-3.16-.34-4.23-1.32-4.59-4.23-7.54-8.47-8.61-2.2-.56-3.58-.65-11.26-.74l-7.56-.09v24.35h0ZM230.1,9.14c2.37.51,3.86,1.52,4.59,3.08.56,1.21.73,2.29.65,4.37-.06,1.73-.09,1.95-.56,2.9-1.1,2.23-3.05,2.97-8.35,3.16l-2.83.09v-14.03l2.68.09c1.53.05,3.16.2,3.83.34h0Z"/>
  <path class="st0" d="M312.82,26.25v24.35l8.95-.08c9.5-.08,11.14-.19,13.45-.9,5.76-1.77,9.22-7.64,8.57-14.58-.17-1.78-.81-3.87-1.56-5.22-.68-1.19-2.39-2.93-3.55-3.61-.9-.54-2.17-1.04-3.3-1.29-.42-.09-.34-.14,1.01-.81,1.15-.56,1.69-.94,2.54-1.81,2-2.01,2.77-4.11,2.77-7.53,0-1.18-.08-2.49-.2-3.02-.88-3.98-2.93-6.75-6.1-8.27-2.65-1.27-3.97-1.41-14.24-1.52l-8.33-.09v24.37h-.01ZM327.88,8.83c4.15.62,5.73,2.29,5.96,6.27.14,2.45-.46,4.29-1.77,5.42-1.47,1.3-3.72,1.83-8.29,1.97l-3.22.09v-13.97l1.36-.05c2.15-.08,4.32.03,5.95.26h.01ZM330.02,28.84c1.58.42,2.51.88,3.47,1.77,2.96,2.7,3.05,8.26.19,11.06-.99.96-2.11,1.53-3.69,1.87-1.29.28-7.17.57-8.52.43l-.9-.11v-15.48l4.15.08c3.42.06,4.34.12,5.3.37h0Z"/>
  <polygon class="st0" points="403.44 5.26 403.44 8.59 409.92 8.63 416.38 8.67 416.43 29.62 416.46 50.57 420.33 50.57 424.2 50.57 424.23 29.62 424.28 8.67 430.68 8.63 437.06 8.59 437.06 5.26 437.06 1.93 420.25 1.93 403.44 1.93 403.44 5.26"/>
  <polygon class="st0" points="443.41 26.25 443.41 50.57 447.36 50.57 451.31 50.57 451.31 26.25 451.31 1.93 447.36 1.93 443.41 1.93 443.41 26.25"/>
</svg>