<svg width="200" height="215" viewBox="0 0 200 215" fill="none" xmlns="http://www.w3.org/2000/svg">
<g clip-path="url(#clip0_25_277)">
<path fill-rule="evenodd" clip-rule="evenodd" d="M50.0665 106.699C22.657 165.635 0.0675563 214.186 0.00186949 214.517C-0.129504 214.914 6.67248 215.046 17.4383 214.98L35.1398 214.783L47.0948 188.191L58.9841 161.599L100.199 161.731L141.414 161.862L153.038 188.32L164.663 214.778L182.364 214.975C192.075 215.041 200 214.975 200 214.778C200 214.646 180.052 171.519 155.68 119.064C131.307 66.5426 108.981 18.3882 106.009 12.0391C103.103 5.69007 100.528 0.264221 100.328 0.00109474C100.063 -0.2643 77.4738 47.7585 50.0643 106.694L50.0665 106.699ZM117.769 107.624C123.45 120.325 128.404 131.437 128.734 132.231L129.328 133.753H100.596C84.8103 133.753 71.8632 133.622 71.8632 133.488C71.8632 133.29 76.3548 123.103 81.8363 110.8C93.7256 84.011 94.8491 81.2981 97.6215 71.9072C98.8106 67.8718 99.9341 64.3672 100.065 64.1019C100.263 63.8365 101.982 68.2688 103.896 74.0235C105.878 79.9756 111.821 94.3954 117.767 107.627L117.769 107.624Z" fill="#EC1B23"/>
</g>
<defs>
<clipPath id="clip0_25_277">
<rect width="200" height="215" fill="white"/>
</clipPath>
</defs>
</svg>
