<?xml version="1.0" encoding="UTF-8"?>
<svg id="_레이어_1" data-name="레이어_1" xmlns="http://www.w3.org/2000/svg" version="1.1" viewBox="0 0 10174.62 987.96">
  <!-- Generator: Adobe Illustrator 30.2.0, SVG Export Plug-In . SVG Version: 2.1.1 Build 105)  -->
  <defs>
    <style>
      .st0 {
        fill: #ec1b23;
      }

      .st0, .st1 {
        fill-rule: evenodd;
      }

      .st1 {
        fill: #3f3f3f;
      }
    </style>
  </defs>
  <path class="st0" d="M216.43,473.92C95.42,733.74-4.31,947.78-4.6,949.24c-.58,1.75,29.45,2.33,76.98,2.04l78.15-.87,52.78-117.23,52.49-117.23,181.96.58,181.96.58,51.32,116.64,51.32,116.64,78.15.87c42.87.29,77.86,0,77.86-.87,0-.58-88.07-190.71-195.67-421.96-107.6-231.54-206.17-443.83-219.29-471.82-12.83-27.99-24.2-51.91-25.08-53.07-1.17-1.17-100.9,210.54-221.91,470.36ZM515.33,478c25.08,55.99,46.95,104.98,48.41,108.48l2.62,6.71h-126.85c-69.69,0-126.85-.58-126.85-1.17,0-.87,19.83-45.78,44.03-100.02,52.49-118.1,57.45-130.06,69.69-171.46,5.25-17.79,10.21-33.24,10.79-34.41.87-1.17,8.46,18.37,16.91,43.74,8.75,26.24,34.99,89.81,61.24,148.14Z"/>
  <path class="st0" d="M2645.52,476.25v475.61h137.06l.58-316.98.87-316.98,25.08,30.33c34.7,42.28,57.45,65.32,186.34,188.67,153.09,146.39,412.62,395.71,444.12,426.33l25.37,25.08V36.22h-137.06l-.58,316.98-.87,316.69-21.58-25.95c-32.95-39.08-126.27-131.51-389.59-384.92-131.51-126.56-246.12-236.49-254.28-244.37l-15.46-14.29v475.9Z"/>
  <path class="st1" d="M5181.04,19.01c-166.51,15.75-312.89,113.73-387.55,259.24-21.29,41.41-33.53,75.53-43.16,119.56-5.83,27.12-6.71,38.49-6.42,99.15,0,59.78.87,72.32,6.42,98.27,20.12,91.86,61.53,167.09,128.6,234.16,43.16,42.87,79.03,69.11,127.14,93.31,67.65,33.53,130.35,49.28,208.5,51.61,108.77,3.5,201.21-23.04,291.9-84.27,82.52-55.7,146.97-136.18,180.8-225.41,46.95-124.81,39.37-265.07-21-383.17-76.69-150.18-222.5-247.57-393.67-262.74-37.62-3.21-53.95-3.21-91.56.29ZM5284.86,157.53c148.14,25.37,260.11,148.43,277.03,304.15,8.46,79.9-14.29,167.67-60.95,233.58-30.33,43.16-81.07,86.9-128.6,110.81-74.94,37.62-177.01,42.28-259.82,11.37-78.73-29.16-153.09-100.31-187.79-179.63-38.78-88.07-38.78-196.54,0-284.61,30.91-70.86,96.52-137.93,165.92-170.01,59.78-27.41,129.77-36.74,194.21-25.66Z"/>
  <path class="st1" d="M7029.83,19.01c-142.89,13.41-271.49,87.48-355.18,204.71-19.54,27.12-50.74,88.94-61.53,121.6-16.91,51.32-20.7,77.86-20.7,150.18,0,59.49.87,70.57,6.71,98.85,19.83,92.73,60.95,167.38,128.6,235.04,43.16,42.87,79.03,69.11,127.14,93.31,67.65,33.53,130.35,49.28,208.5,51.61,67.94,2.33,124.81-6.42,183.71-28.29,132.97-48.99,241.16-154.26,288.98-281.4,46.95-125.1,39.37-264.78-21-383.17-76.69-150.18-222.5-247.57-393.67-262.74-37.62-3.21-53.95-3.21-91.56.29ZM7133.64,157.53c70.86,12.25,131.22,44.62,182.25,97.98,128.6,134.43,128.6,347.3,0,479.99-26.24,27.12-46.07,42.57-79.03,61.53-80.19,45.78-185.75,53.66-275.57,20.41-78.73-29.16-153.09-100.31-187.79-179.63-38.2-86.61-38.78-191.59-1.75-279.94,30.62-73.48,96.23-141.72,167.67-174.67,59.78-27.41,129.77-36.74,194.21-25.66Z"/>
  <path class="st1" d="M9104.61,17.56c-126.56,15.16-221.04,60.36-301.81,144.64-93.61,97.11-138.8,226.87-129.47,370.63,4.08,65.32,18.95,122.18,47.82,181.96,22.75,47.82,46.95,81.65,87.48,122.18,68.53,68.82,140.85,107.02,243.2,128.6,33.83,7.29,42.28,7.87,105.27,7.87,54.24.29,74.36-.87,96.23-4.96,67.94-13.12,119.85-32.95,170.01-65.03l19.54-12.83v-166.8l-13.71,11.66c-55.99,46.37-129.47,81.36-200.92,95.94-36.74,7.29-118.98,7.29-151.34,0-81.36-18.66-146.39-62.7-193.63-131.51-42.57-61.82-63.28-150.76-55.7-238.53,7.58-88.94,34.7-152.22,90.4-210.54,56.86-59.78,128.02-91.86,215.79-97.4,107.02-7,202.08,21.87,287.82,86.61l22.75,17.2,1.75-19.25c1.17-10.79,2.92-44.03,4.08-73.78l2.04-54.53-17.79-11.96c-46.07-31.2-121.89-61.82-182.55-73.48-28.29-5.54-121.89-9.62-147.26-6.71Z"/>
  <path class="st1" d="M9841.8,18.72c-123.93,11.96-215.79,91.27-232.99,201.79-5.25,34.7-2.04,92.44,7,120.43,25.08,76.4,87.19,129.18,242.62,205.58,88.94,43.74,123.06,68.53,145.22,105.85,30.33,50.45,14,122.18-36.16,159.8-45.78,34.41-132.68,36.74-192.75,4.96-25.08-13.41-50.16-40.24-63.86-68.24-6.12-12.83-11.37-25.66-11.37-28.29s-1.17-4.96-2.92-4.96c-3.5,0-111.1,49.57-114.89,52.78-1.46,1.17.29,11.66,4.08,23.33,23.04,76.11,77.28,134.14,151.05,161.84,35.87,13.41,65.9,18.95,112.85,20.7,140.26,5.54,243.78-47.24,293.36-149.3,34.41-71.44,36.16-173.21,3.79-239.12-28.29-58.03-78.15-96.81-204.12-158.93-85.15-41.99-119.56-63.57-145.8-90.98-24.49-25.37-33.83-44.62-35.58-72.61-2.92-51.32,25.37-93.9,73.78-110.52,22.16-7.87,64.45-10.79,86.9-6.12,36.16,7.58,69.4,31.2,98.56,69.99l7.29,9.91,57.45-29.74,57.15-29.74-2.92-7.87c-13.71-36.16-52.78-81.07-88.65-101.77-53.36-30.91-134.72-46.07-209.08-38.78h0Z"/>
  <polygon class="st0" points="968.78 494.04 968.78 951.86 1043.14 951.86 1117.5 951.86 1117.5 494.04 1117.5 36.22 1043.14 36.22 968.78 36.22 968.78 494.04"/>
  <path class="st0" d="M1333.29,494.33v458.11l180.21-1.46c184.59-1.46,222.5-3.5,279.07-15.16,155.43-31.79,271.19-153.39,304.44-319.6,11.66-58.9,14.87-124.22,9.04-183.71-20.41-199.17-132.39-337.39-306.19-377.05-56.28-13.12-170.01-19.25-353.43-19.25h-113.14v458.11ZM1719.67,175.9c65.61,10.5,105.56,29.16,144.64,67.36,64.15,62.99,93.61,152.51,89.23,271.19-2.04,50.16-8.75,88.65-22.45,125.68-27.99,77.28-83.98,134.43-154.84,158.63-39.95,13.71-68.24,16.62-185.46,18.08l-108.77,1.46V169.77l108.77,1.46c59.49.87,117.81,2.92,128.89,4.67Z"/>
  <polygon class="st0" points="2283.93 494.04 2283.93 951.86 2358.29 951.86 2432.65 951.86 2432.65 494.04 2432.65 36.22 2358.29 36.22 2283.93 36.22 2283.93 494.04"/>
  <path class="st1" d="M4062.73,493.75v458.11h139.97v-407.67l7.87-1.46c4.67-.87,8.75-.58,9.62.58.87,1.17,69.4,93.61,152.51,205.29l151.05,203.25h83.11c45.49,0,82.82-.58,82.82-1.46,0-.58-70.28-94.19-156.3-207.62l-156.3-206.46,11.37-2.33c56.57-12.25,87.77-24.79,114.89-46.07,34.99-27.41,60.07-66.78,73.19-114.89,5.54-20.12,6.42-30.91,6.42-80.19.29-50.74-.29-59.49-6.42-79.61-24.79-86.32-79.61-142.01-159.51-162.13-41.41-10.5-67.36-12.25-212-14l-142.3-1.75v458.41ZM4333.93,171.82c44.62,9.62,72.61,28.58,86.32,58.03,10.5,22.75,13.71,43.16,12.25,82.23-1.17,32.66-1.75,36.74-10.5,54.53-20.7,41.99-57.45,55.99-157.18,59.49l-53.36,1.75V163.65l50.45,1.75c28.87.87,59.49,3.79,72.03,6.42Z"/>
  <path class="st1" d="M5891.11,494.04v458.41l168.55-1.46c178.76-1.46,209.67-3.5,253.11-16.91,108.48-33.24,173.51-143.76,161.26-274.4-3.21-33.53-15.16-72.9-29.45-98.27-12.83-22.45-44.91-55.11-66.78-67.94-16.91-10.21-40.82-19.54-62.11-24.2-7.87-1.75-6.42-2.62,18.95-15.16,21.58-10.5,31.79-17.79,47.82-34.12,37.62-37.91,52.2-77.28,52.2-141.72,0-22.16-1.46-46.95-3.79-56.86-16.62-74.94-55.11-127.14-114.89-155.72-49.86-23.91-74.65-26.54-267.99-28.58l-156.88-1.75v458.7ZM6174.55,165.98c78.15,11.66,107.89,43.16,112.27,118.1,2.62,46.07-8.75,80.78-33.24,102.06-27.7,24.49-69.99,34.41-156.01,37.03l-60.65,1.75V161.9l25.66-.87c40.53-1.46,81.36.58,111.98,4.96ZM6214.79,542.74c29.74,7.87,47.24,16.62,65.32,33.24,55.7,50.74,57.45,155.43,3.5,208.21-18.66,18.08-39.66,28.87-69.4,35.28-24.2,5.25-135.01,10.79-160.38,8.16l-16.91-2.04v-291.32l78.15,1.46c64.45,1.17,81.65,2.33,99.73,7Z"/>
  <polygon class="st1" points="7597.01 98.91 7597.01 161.61 7718.9 162.19 7840.5 163.07 7841.37 557.32 7841.96 951.86 7914.86 951.86 7987.76 951.86 7988.34 557.32 7989.22 163.07 8109.65 162.19 8229.79 161.61 8229.79 98.91 8229.79 36.22 7913.4 36.22 7597.01 36.22 7597.01 98.91"/>
  <polygon class="st1" points="8349.35 494.04 8349.35 951.86 8423.71 951.86 8498.07 951.86 8498.07 494.04 8498.07 36.22 8423.71 36.22 8349.35 36.22 8349.35 494.04"/>
</svg>